HIERARCHY
ROOT Hips
{
  OFFSET 279.157 85.6768 304.565
  CHANNELS 6 Xposition Yposition Zposition Zrotation Xrotation Yrotation
  JOINT LeftUpLeg
  {
    OFFSET 8.64259 1.95398 -2.38835
    CHANNELS 3 Zrotation Xrotation Yrotation
    JOINT LeftLeg
    {
      OFFSET 43.7702 0 0
      CHANNELS 3 Zrotation Xrotation Yrotation
      JOINT LeftFoot
      {
        OFFSET 40.6238 0 0
        CHANNELS 3 Zrotation Xrotation Yrotation
        JOINT LeftToeBase
        {
          OFFSET 12.7242 0 0
          CHANNELS 3 Zrotation Xrotation Yrotation
          End Site
          {
            OFFSET 0 0 0
          }
        }
      }
    }
  }
  JOINT RightUpLeg
  {
    OFFSET -8.2249 1.95398 -2.59336
    CHANNELS 3 Zrotation Xrotation Yrotation
    JOINT RightLeg
    {
      OFFSET 43.5653 0 0
      CHANNELS 3 Zrotation Xrotation Yrotation
      JOINT RightFoot
      {
        OFFSET 40.6238 0 0
        CHANNELS 3 Zrotation Xrotation Yrotation
        JOINT RightToeBase
        {
          OFFSET 12.7242 0 0
          CHANNELS 3 Zrotation Xrotation Yrotation
          End Site
          {
            OFFSET 0 0 0
          }
        }
      }
    }
  }
  JOINT Spine
  {
    OFFSET 0.165834 0.87714 6.61349
    CHANNELS 3 Zrotation Xrotation Yrotation
    JOINT Spine1
    {
      OFFSET 7.38963 1.71661e-005 0
      CHANNELS 3 Zrotation Xrotation Yrotation
      JOINT Spine2
      {
        OFFSET 11.9445 1.14441e-005 0
        CHANNELS 3 Zrotation Xrotation Yrotation
        JOINT Spine3
        {
          OFFSET 14.7254 4.19617e-005 0
          CHANNELS 3 Zrotation Xrotation Yrotation
          JOINT Spine4
          {
            OFFSET 10.9679 0 0
            CHANNELS 3 Zrotation Xrotation Yrotation
            JOINT RightShoulder
            {
              OFFSET 2.46616 -1.6653 3.69651
              CHANNELS 3 Zrotation Xrotation Yrotation
              JOINT RightArm
              {
                OFFSET 13.0012 0 0
                CHANNELS 3 Zrotation Xrotation Yrotation
                JOINT RightForeArm
                {
                  OFFSET 28.7848 1.52588e-005 0
                  CHANNELS 3 Zrotation Xrotation Yrotation
                  JOINT RightHand
                  {
                    OFFSET 26.5688 1.52588e-005 0
                    CHANNELS 3 Zrotation Xrotation Yrotation
                    End Site
                    {
                      OFFSET 0 0 0
                    }
                  }
                }
              }
            }
            JOINT LeftShoulder
            {
              OFFSET 2.38034 -1.29275 -3.7523
              CHANNELS 3 Zrotation Xrotation Yrotation
              JOINT LeftArm
              {
                OFFSET 16.3182 6.10351e-005 0
                CHANNELS 3 Zrotation Xrotation Yrotation
                JOINT LeftForeArm
                {
                  OFFSET 27.0901 0 0
                  CHANNELS 3 Zrotation Xrotation Yrotation
                  JOINT LeftHand
                  {
                    OFFSET 24.5451 1.52588e-005 0
                    CHANNELS 3 Zrotation Xrotation Yrotation
                    End Site
                    {
                      OFFSET 0 0 0
                    }
                  }
                }
              }
            }
            JOINT Neck
            {
              OFFSET 5.0226 -0.0266342 0
              CHANNELS 3 Zrotation Xrotation Yrotation
              JOINT Head
              {
                OFFSET 6.69364 2.86102e-005 0
                CHANNELS 3 Zrotation Xrotation Yrotation
                End Site
                {
                  OFFSET 0 0 0
                }
              }
            }
          }
        }
      }
    }
  }
}
MOTION
Frames:	14
Frame Time:	0.0416667
-92.8377 87.6714 -88.1855 20.2045 -54.0091 24.4377 -152.884 46.028 72.5791 -56.4993 -3.04703 -13.611 101.634 21.9741 -11.8504 31.045 1.78327 -2.96602 -175.36 41.0843 68.372 -56.0822 -1.97793 -8.43527 64.331 -2.69802 -4.42882 14.6222 4.07836 3.36429 -0.0117672 11.6077 -91.9873 3.62921 -0.818687 -3.88724 -8.04719 -0.988854 -3.84755 -30.5358 0.386456 -3.95358 -10.5231 0.386463 -3.95358 86.1574 -23.3582 -117.853 8.40779 -3.65595 8.08677 2.98429 -3.36753 -22.5136 -29.8322 2.42361 -15.0757 -94.5411 -39.2445 68.5028 12.1036 20.6949 -54.7434 22.4567 6.47981 -65.8376 12.0161 -2.21794 -21.1044 31.1859 -0.0599145 -6.7778 -5.60406 2.42725 10.2083 
-88.8426 86.2301 -83.5215 32.458 -55.386 35.8452 -158.356 36.8912 74.6045 -55.3309 1.59739 -11.384 104.241 25.9295 -9.22144 32.6068 2.41233 -2.17874 -169.314 40.5769 69.0499 -76.6267 -12.4857 -10.3369 65.1969 -3.82458 -6.44414 11.8131 3.66837 7.88486 -0.407297 11.2154 -92.0385 4.39638 -1.64259 -3.98125 -7.2794 -1.81608 -3.90525 -29.7665 -0.371372 -4.29027 -9.75385 -0.371359 -4.29027 86.6568 -27.4277 -114.597 17.5263 -4.12662 18.3292 1.66943 -6.02332 -27.0562 -32.9057 2.65619 -15.3922 -94.3106 -40.0885 69.2048 15.5822 26.022 -47.7949 27.3274 1.38082 -74.287 13.5148 -2.49734 -21.4954 25.4301 1.14985 -7.44005 -3.34207 3.63308 11.6533 
-85.1221 84.8475 -78.9605 45.1414 -55.9741 47.0784 -162.704 27.0303 75.8781 -54.4754 2.38148 -9.13558 106.543 28.2555 -8.94165 35.1324 3.44716 -0.736521 -167.423 43.6007 71.5093 -91.6742 -8.78572 -7.85771 69.3471 -6.69324 -6.56556 13.6234 2.40677 10.5932 -0.738213 10.8968 -91.8235 5.03152 -2.22638 -3.54078 -6.64206 -2.37996 -3.4395 -29.1432 -1.06031 -4.04539 -9.13054 -1.06031 -4.04539 88.7553 -29.2669 -109.526 30.6913 -3.82284 29.6477 -2.75227 -12.4469 -32.4793 -40.8333 2.03911 -12.8937 -92.4579 -36.7745 71.1819 20.8008 24.7465 -46.2799 34.1243 -3.99048 -82.1431 14.6587 -2.65869 -21.399 20.9426 1.25714 -11.4107 -2.38816 4.82089 15.0048 
-81.0761 84.089 -74.2703 52.4212 -54.0541 55.0404 -166.263 19.6207 77.6459 -51.6337 2.72553 -7.15399 107.009 29.568 -8.5092 38.1908 4.709 1.68897 -172.11 52.2524 77.7147 -99.1657 0.709128 -4.79675 74.4406 -9.60291 -8.12328 17.4087 2.09497 7.84815 -1.32965 10.4899 -91.6591 5.83593 -3.35168 -3.16817 -5.8342 -3.4878 -3.01764 -28.3565 -2.24542 -4.02814 -8.34386 -2.24542 -4.02816 89.8895 -27.8564 -107.833 43.8531 -5.1582 40.0374 -5.31852 -15.3253 -36.3106 -44.1927 1.45262 -11.414 -89.3213 -30.553 74.7673 23.9326 18.6335 -44.6526 34.1986 -7.70338 -87.1245 18.594 -2.7644 -18.6513 19.1132 3.84164 -13.6203 -3.44607 7.65 16.1957 
-76.4319 84.007 -68.8865 53.7172 -52.5726 60.2653 -167.966 13.4693 81.7969 -46.5963 3.3407 -5.75821 105.131 28.8849 -8.22657 40.5857 6.01631 1.45884 177.537 61.4429 91.2492 -98.8561 0.485834 -2.93352 80.0328 -12.8202 -8.1023 18.7054 1.91321 7.0662 -1.81255 10.06 -91.7665 6.67509 -4.3731 -3.31179 -4.9922 -4.51454 -3.11603 -27.5286 -3.17659 -4.47217 -7.516 -3.1766 -4.47218 92.9272 -23.074 -103.061 57.0097 -10.3906 48.2968 -9.76613 -18.524 -41.404 -43.792 1.37305 -12.2864 -86.3722 -21.6054 77.8652 25.2166 13.523 -42.9142 36.5057 -8.15567 -88.0716 23.7961 -3.6306 -19.5299 18.3524 7.22841 -15.0768 -4.51872 11.0908 17.1146 
-70.348 84.8194 -62.9518 53.2459 -52.2306 63.9952 -169.817 5.38931 85.2678 -36.6038 6.98219 -4.3424 94.4711 25.8861 -1.58197 46.3677 9.08115 -0.0804556 166.244 66.5912 105.908 -90.3201 -2.27446 -0.705038 84.8648 -14.051 -3.92428 21.2536 1.29195 6.51483 -2.61967 9.72382 -92.3651 7.29464 -6.25218 -4.36895 -4.36776 -6.4382 -4.08919 -26.9183 -4.65254 -6.04452 -6.9057 -4.65254 -6.04452 94.0704 -12.1286 -105.507 70.8154 -14.0189 58.2109 -23.6859 -22.5464 -50.7582 -47.1601 0.429561 -11.6435 -83.7356 -16.2964 82.4533 25.7628 12.6152 -40.073 36.0721 -9.54565 -88.9942 21.6288 -3.65868 -21.0521 18.4093 13.0481 -9.3261 -6.14084 14.7816 16.3418 
-63.0977 86.4616 -56.5863 51.8758 -53.9926 65.8279 -172.961 -3.85649 85.7439 -22.7403 9.16984 -2.00306 76.8328 15.6693 3.67173 53.5487 12.4174 -5.47505 159.693 67.6331 115.711 -76.7664 -9.5172 2.28767 84.4805 -13.9287 -3.5978 25.905 -0.151559 7.36361 -2.59587 9.5512 -92.5191 7.62147 -6.27666 -4.65246 -4.04164 -6.47512 -4.37142 -26.5831 -4.59108 -6.3216 -6.57041 -4.59108 -6.32162 93.9428 -14.0278 -104.542 72.8 -16.7208 64.1399 -35.5378 -23.0158 -57.347 -48.5863 1.2132 -15.1992 -83.5222 -10.1755 80.9928 27.5502 14.4363 -39.2694 37.9422 -9.88319 -88.5383 22.4064 -3.94887 -21.8058 21.2958 14.7661 -10.0909 -8.90773 16.3991 17.9137 
-54.9902 88.5085 -49.5407 48.8419 -56.7938 65.4086 -176.72 -6.68109 84.9038 -18.4755 11.7755 0.422123 56.5462 -0.373069 4.28351 43.7032 7.99724 -12.1919 160.851 65.7657 118.869 -64.2982 -8.19377 4.39554 84.0498 -12.4094 -0.496309 25.6311 -0.105046 7.53439 -2.42941 9.33424 -92.8886 8.03172 -6.11345 -5.36248 -3.63479 -6.34321 -5.08828 -26.1443 -4.22344 -6.94774 -6.13161 -4.22344 -6.94775 93.3895 -15.3755 -105.337 68.2961 -19.5062 65.4764 -44.8514 -22.4668 -62.6407 -54.5561 0.82479 -14.6632 -84.2251 -11.3558 79.475 28.5337 18.3279 -38.5394 37.4026 -11.2686 -89.139 23.1436 -3.67996 -20.1269 24.092 17.3026 -7.23788 -10.9613 17.803 17.3194 
-47.5156 88.9249 -42.3335 46.675 -60.1703 63.3803 -176.065 -6.33666 83.9527 -23.9159 16.6188 -0.824158 49.4607 -6.91994 -0.873158 22.8934 -2.24414 -2.70479 166.691 61.3871 116.757 -57.3573 -9.01864 4.44921 83.4372 -12.4099 -0.497047 27.5269 -0.378399 5.73308 -2.19922 9.1328 -92.8828 8.44758 -5.66067 -5.3524 -3.22104 -5.89043 -5.0983 -25.7193 -3.79451 -6.80203 -5.70668 -3.79451 -6.80202 91.386 -19.0111 -108.529 55.6054 -19.5753 58.5892 -46.8537 -21.0767 -66.2431 -55.9193 0.383978 -13.802 -85.0953 -17.1662 79.382 26.5824 23.3454 -39.7352 39.1781 -11.2934 -88.2884 22.8949 -3.37404 -18.9404 25.3669 19.9669 -4.22535 -10.2985 19.61 15.1001 
-40.6393 88.2777 -35.6514 48.7922 -62.0629 62.6063 -172.45 -3.55726 83.0897 -36.7096 22.8555 -4.38839 50.8489 -6.23872 -1.71455 33.9767 3.41615 -4.23149 172.424 55.8054 110.135 -56.7736 -9.73974 2.98889 76.4802 -8.08648 -0.130985 22.831 1.4767 3.17285 -1.91752 9.0578 -92.5223 8.63508 -4.94304 -4.67217 -3.03407 -5.14368 -4.45023 -25.5412 -3.3131 -5.93897 -5.52855 -3.3131 -5.93897 89.9701 -26.2041 -108.403 38.0239 -16.849 44.5065 -51.1638 -19.8894 -72.8087 -56.7797 -1.59431 -10.0987 -87.0137 -26.2679 77.9619 21.4981 28.0087 -38.4321 42.6128 -9.10988 -86.8728 22.6318 -3.0908 -17.8359 29.6117 20.7822 -0.790368 -10.8614 19.3686 10.9327 
-33.9581 88.1258 -29.2736 52.3603 -62.0148 63.1262 -167.056 5.59742 83.6928 -58.8184 14.5945 -5.13014 50.8125 -5.93963 -1.02388 32.2493 2.85125 -5.6192 174.568 50.7164 104.424 -62.3438 -8.53416 1.33684 82.4347 -10.9591 1.62262 25.1118 0.0768606 7.29464 -1.56195 8.90713 -92.1542 8.97257 -4.07603 -3.98505 -2.69755 -4.24735 -3.80192 -25.2098 -2.69163 -5.02409 -5.19712 -2.69163 -5.02412 88.0383 -31.488 -109.987 25.0982 -8.52804 29.1098 -48.224 -15.6048 -77.7825 -60.0349 -0.827901 -10.7178 -89.8384 -37.4812 75.9272 14.8478 30.7945 -32.8825 47.1845 -4.56141 -84.565 23.8783 -2.48521 -14.6143 31.0758 20.2035 2.77184 -9.52594 17.7487 6.94527 
-27.1892 88.5042 -23.0376 52.2813 -64.3155 65.4229 -160.774 19.4987 87.9233 -79.9845 2.88383 -2.40759 57.1452 -1.32611 2.64055 24.7127 -0.833731 -4.98047 175.644 41.9225 103.664 -59.9182 -9.69892 1.24425 86.968 -14.3015 2.11808 26.7915 -0.723427 9.52153 -0.578904 8.78302 -92.3456 9.2421 -2.20559 -4.48739 -2.43433 -2.40078 -4.38624 -24.9104 -0.756846 -4.94166 -4.89772 -0.756846 -4.94167 87.4716 -32.7259 -110.548 19.3791 0.488927 11.645 -50.2811 -10.9147 -83.9822 -57.303 -1.06963 -10.4607 -91.3429 -46.8771 75.9687 1.28374 30.2805 -19.7932 50.8512 -0.379457 -83.7026 26.4532 -1.96253 -11.5914 28.9446 18.9497 7.34029 -5.92867 15.2142 3.69633 
-20.7804 88.4066 -16.6242 54.1296 -66.3111 68.7281 -158.726 33.9799 89.7542 -94.0865 2.87331 1.00164 65.0659 5.43731 8.68008 18.3278 -3.34827 -6.86879 176.888 32.181 102.084 -56.7047 -8.72923 0.862135 91.528 -16.4917 4.88955 31.7022 -1.66189 6.81776 0.258454 8.67248 -92.3742 9.49441 -0.553822 -4.66483 -2.18468 -0.758361 -4.63603 -24.6541 0.87218 -4.61601 -4.64143 0.872191 -4.61601 87.5069 -32.264 -110.705 16.9288 5.7735 -7.87074 -47.9203 -8.52795 -88.9164 -56.3609 -1.0395 -10.0283 -89.8529 -48.841 78.7063 -17.3092 27.0605 5.14061 47.3601 -6.4834 -86.723 29.584 -2.84198 -14.0014 29.0002 17.3284 9.54507 -5.61601 12.8906 0.976979 
-14.5718 88.208 -10.3916 51.376 -66.1985 63.5939 -158.944 48.1115 87.0714 -98.8616 3.99431 2.22141 70.8699 9.68542 8.85834 19.1977 -3.21734 -5.96383 177.423 25.1882 96.7857 -52.5713 -7.14847 -0.671333 96.1892 -17.7782 9.03311 33.9031 -2.24179 6.31263 1.07175 8.23916 -91.8529 10.4029 1.28621 -3.79579 -1.27314 1.11805 -3.84861 -23.7792 2.367 -3.23468 -3.7665 2.367 -3.23468 86.5311 -28.1148 -114.466 16.2738 15.8931 -22.1092 -45.0438 -8.03414 -94.119 -55.9751 -0.865645 -10.0116 -85.6614 -45.1804 84.5299 -28.0056 22.8582 26.3822 45.4238 -13.3307 -93.2285 32.0806 -3.29579 -14.6885 27.6384 14.061 11.2007 -3.35959 9.27713 -1.01839 
